# xmcd
#
# Track frame offsets:
#	150
#	13316
#	27203
#	40564
#	55958
#	68461
#	85578
#	99142
#	115133
#	129764
#	145581
#	159049
#	173332
#	190000
#
# Disc length: 2861 seconds
#
# Revision: 1
# Processed by: cddbd v1.5.2PL0 Copyright (c) Steve Scherf et al.
# Submitted via: audiograbber 1.83.01
#
DISCID=910b2b0e
DTITLE=Linda Feller - Wir sind alle keine Engel
DYEAR=2009
DGENRE=Country
TTITLE0=Wenn überhaupt ...
TTITLE1=Du weist, was Frauen lieben
TTITLE2=Männer wollen nur das Eine
TTITLE3=Tu's doch
TTITLE4=Auch eine Frau kann durchaus ihren Mann stehen
TTITLE5=Du bist das Salz in meiner Suppe
TTITLE6=Minuten im Fieber
TTITLE7=Andere Mütter haben auch ein schönes Kind
TTITLE8=Das imponiert mir nicht
TTITLE9=Nadelstreifenmann
TTITLE10=Leben mir ir
TTITLE11=Diese Lied sing ich für die Liebe
TTITLE12=Tanzen mit dem Wind
TTITLE13=Hit - Medley
EXTD=
EXTT0=
EXTT1=
EXTT2=
EXTT3=
EXTT4=
EXTT5=
EXTT6=
EXTT7=
EXTT8=
EXTT9=
EXTT10=
EXTT11=
EXTT12=
EXTT13=
PLAYORDER=
